<mxfile host="app.diagrams.net" modified="2024-03-14T14:11:23.078Z" agent="Mozilla/5.0 (Windows NT 10.0; Win64; x64) AppleWebKit/537.36 (KHTML, like Gecko) Chrome/122.0.0.0 Safari/537.36" etag="jBRO7YKK9LdIGjKNnjLR" version="24.0.6" type="device">
  <diagram name="Page-1" id="6H0bv8I3cs7mL1Zux1TQ">
    <mxGraphModel dx="1395" dy="650" grid="1" gridSize="10" guides="1" tooltips="1" connect="1" arrows="1" fold="1" page="1" pageScale="1" pageWidth="827" pageHeight="1169" math="0" shadow="0">
      <root>
        <mxCell id="0" />
        <mxCell id="1" parent="0" />
        <mxCell id="CHfBnUl9_OPABkR0VaUp-1" value="" style="rounded=0;whiteSpace=wrap;html=1;" vertex="1" parent="1">
          <mxGeometry x="200" y="80" width="694" height="390" as="geometry" />
        </mxCell>
        <mxCell id="CHfBnUl9_OPABkR0VaUp-2" value="&lt;b&gt;To-do List&lt;/b&gt;" style="rounded=0;whiteSpace=wrap;html=1;align=center;" vertex="1" parent="1">
          <mxGeometry x="200" y="80" width="694" height="20" as="geometry" />
        </mxCell>
        <mxCell id="CHfBnUl9_OPABkR0VaUp-3" value="X" style="rounded=1;whiteSpace=wrap;html=1;" vertex="1" parent="1">
          <mxGeometry x="870" y="80" width="20" height="20" as="geometry" />
        </mxCell>
        <mxCell id="CHfBnUl9_OPABkR0VaUp-5" value="" style="rounded=1;whiteSpace=wrap;html=1;" vertex="1" parent="1">
          <mxGeometry x="840" y="80" width="20" height="20" as="geometry" />
        </mxCell>
        <mxCell id="CHfBnUl9_OPABkR0VaUp-6" value="_" style="rounded=1;whiteSpace=wrap;html=1;" vertex="1" parent="1">
          <mxGeometry x="810" y="80" width="20" height="20" as="geometry" />
        </mxCell>
        <mxCell id="CHfBnUl9_OPABkR0VaUp-7" value="" style="rounded=0;whiteSpace=wrap;html=1;" vertex="1" parent="1">
          <mxGeometry x="845" y="85" width="10" height="10" as="geometry" />
        </mxCell>
        <mxCell id="CHfBnUl9_OPABkR0VaUp-9" value="File Menu" style="rounded=0;whiteSpace=wrap;html=1;align=left;fontStyle=1;fontSize=13;" vertex="1" parent="1">
          <mxGeometry x="200" y="100" width="694" height="20" as="geometry" />
        </mxCell>
        <mxCell id="CHfBnUl9_OPABkR0VaUp-12" value="File Menu" style="swimlane;fontStyle=1;align=center;verticalAlign=top;childLayout=stackLayout;horizontal=1;startSize=26;horizontalStack=0;resizeParent=1;resizeParentMax=0;resizeLast=0;collapsible=1;marginBottom=0;whiteSpace=wrap;html=1;" vertex="1" parent="1">
          <mxGeometry x="40" y="95" width="130" height="138" as="geometry" />
        </mxCell>
        <mxCell id="CHfBnUl9_OPABkR0VaUp-13" value="Open&amp;nbsp; &amp;nbsp; &amp;nbsp; &amp;nbsp; &amp;nbsp; &amp;nbsp; &amp;nbsp;(Ctrl+O)" style="text;strokeColor=none;fillColor=none;align=left;verticalAlign=top;spacingLeft=4;spacingRight=4;overflow=hidden;rotatable=0;points=[[0,0.5],[1,0.5]];portConstraint=eastwest;whiteSpace=wrap;html=1;" vertex="1" parent="CHfBnUl9_OPABkR0VaUp-12">
          <mxGeometry y="26" width="130" height="26" as="geometry" />
        </mxCell>
        <mxCell id="CHfBnUl9_OPABkR0VaUp-16" value="Save&amp;nbsp; &amp;nbsp; &amp;nbsp; &amp;nbsp; &amp;nbsp; &amp;nbsp; &amp;nbsp; (Ctrl+S)" style="text;strokeColor=none;fillColor=none;align=left;verticalAlign=top;spacingLeft=4;spacingRight=4;overflow=hidden;rotatable=0;points=[[0,0.5],[1,0.5]];portConstraint=eastwest;whiteSpace=wrap;html=1;" vertex="1" parent="CHfBnUl9_OPABkR0VaUp-12">
          <mxGeometry y="52" width="130" height="26" as="geometry" />
        </mxCell>
        <mxCell id="CHfBnUl9_OPABkR0VaUp-17" value="Reload&amp;nbsp; &amp;nbsp; &amp;nbsp; &amp;nbsp; &amp;nbsp; (Ctrl+R)" style="text;strokeColor=none;fillColor=none;align=left;verticalAlign=top;spacingLeft=4;spacingRight=4;overflow=hidden;rotatable=0;points=[[0,0.5],[1,0.5]];portConstraint=eastwest;whiteSpace=wrap;html=1;" vertex="1" parent="CHfBnUl9_OPABkR0VaUp-12">
          <mxGeometry y="78" width="130" height="26" as="geometry" />
        </mxCell>
        <mxCell id="CHfBnUl9_OPABkR0VaUp-14" value="" style="line;strokeWidth=1;fillColor=none;align=left;verticalAlign=middle;spacingTop=-1;spacingLeft=3;spacingRight=3;rotatable=0;labelPosition=right;points=[];portConstraint=eastwest;strokeColor=inherit;" vertex="1" parent="CHfBnUl9_OPABkR0VaUp-12">
          <mxGeometry y="104" width="130" height="8" as="geometry" />
        </mxCell>
        <mxCell id="CHfBnUl9_OPABkR0VaUp-23" value="Exit&amp;nbsp; &amp;nbsp; &amp;nbsp; &amp;nbsp; &amp;nbsp; &amp;nbsp; &amp;nbsp; &amp;nbsp; (Ctrl+Q)" style="text;strokeColor=none;fillColor=none;align=left;verticalAlign=top;spacingLeft=4;spacingRight=4;overflow=hidden;rotatable=0;points=[[0,0.5],[1,0.5]];portConstraint=eastwest;whiteSpace=wrap;html=1;" vertex="1" parent="CHfBnUl9_OPABkR0VaUp-12">
          <mxGeometry y="112" width="130" height="26" as="geometry" />
        </mxCell>
        <mxCell id="CHfBnUl9_OPABkR0VaUp-24" value="" style="endArrow=classic;html=1;rounded=0;" edge="1" parent="1">
          <mxGeometry width="50" height="50" relative="1" as="geometry">
            <mxPoint x="200" y="110" as="sourcePoint" />
            <mxPoint x="170" y="110" as="targetPoint" />
          </mxGeometry>
        </mxCell>
        <mxCell id="CHfBnUl9_OPABkR0VaUp-25" value="Entry Box" style="rounded=0;whiteSpace=wrap;html=1;fontSize=14;fontStyle=1;align=center;" vertex="1" parent="1">
          <mxGeometry x="210" y="130" width="560" height="30" as="geometry" />
        </mxCell>
        <mxCell id="CHfBnUl9_OPABkR0VaUp-26" value="Add" style="rounded=1;whiteSpace=wrap;html=1;fontSize=14;fontStyle=1" vertex="1" parent="1">
          <mxGeometry x="790" y="130" width="90" height="26" as="geometry" />
        </mxCell>
        <mxCell id="CHfBnUl9_OPABkR0VaUp-27" value="&lt;span style=&quot;font-size: 17px;&quot;&gt;Todo List (Treeview)&lt;/span&gt;" style="shape=process;whiteSpace=wrap;html=1;backgroundOutline=1;fontStyle=1;size=0.030303030303030304;" vertex="1" parent="1">
          <mxGeometry x="210" y="173" width="660" height="227" as="geometry" />
        </mxCell>
        <mxCell id="CHfBnUl9_OPABkR0VaUp-28" value="&lt;span style=&quot;font-family: Consolas, &amp;quot;Courier New&amp;quot;, monospace; font-size: 18px; white-space: pre;&quot;&gt;Columns: ID |&lt;/span&gt;&lt;span style=&quot;background-color: rgb(255, 255, 255); font-family: Consolas, &amp;quot;Courier New&amp;quot;, monospace; font-size: 18px; white-space: pre;&quot;&gt; &lt;/span&gt;&lt;span style=&quot;font-family: Consolas, &amp;quot;Courier New&amp;quot;, monospace; font-size: 18px; white-space: pre;&quot;&gt;Title &lt;/span&gt;&lt;span style=&quot;font-family: Consolas, &amp;quot;Courier New&amp;quot;, monospace; font-size: 18px; white-space: pre;&quot;&gt;|&lt;/span&gt;&lt;span style=&quot;font-family: Consolas, &amp;quot;Courier New&amp;quot;, monospace; font-size: 18px; white-space: pre;&quot;&gt; &lt;/span&gt;&lt;span style=&quot;font-family: Consolas, &amp;quot;Courier New&amp;quot;, monospace; font-size: 18px; white-space: pre;&quot;&gt;Description &lt;/span&gt;&lt;span style=&quot;font-family: Consolas, &amp;quot;Courier New&amp;quot;, monospace; font-size: 18px; white-space: pre;&quot;&gt;| &lt;/span&gt;&lt;span style=&quot;font-family: Consolas, &amp;quot;Courier New&amp;quot;, monospace; font-size: 18px; white-space: pre;&quot;&gt;Alarm &lt;/span&gt;&lt;span style=&quot;font-family: Consolas, &amp;quot;Courier New&amp;quot;, monospace; font-size: 18px; white-space: pre;&quot;&gt;|&lt;/span&gt;&lt;span style=&quot;font-family: Consolas, &amp;quot;Courier New&amp;quot;, monospace; font-size: 18px; white-space: pre;&quot;&gt; &lt;/span&gt;&lt;span style=&quot;font-family: Consolas, &amp;quot;Courier New&amp;quot;, monospace; font-size: 18px; white-space: pre;&quot;&gt;Done&lt;/span&gt;" style="rounded=0;whiteSpace=wrap;html=1;fontStyle=0" vertex="1" parent="1">
          <mxGeometry x="210" y="173" width="660" height="27" as="geometry" />
        </mxCell>
        <mxCell id="CHfBnUl9_OPABkR0VaUp-35" value="Complete&lt;span style=&quot;white-space: pre;&quot;&gt;&#x9;&lt;/span&gt;" style="rounded=1;whiteSpace=wrap;html=1;fontSize=14;fontStyle=1" vertex="1" parent="1">
          <mxGeometry x="210" y="420" width="90" height="26" as="geometry" />
        </mxCell>
        <mxCell id="CHfBnUl9_OPABkR0VaUp-36" value="Undo" style="rounded=1;whiteSpace=wrap;html=1;fontSize=14;fontStyle=1" vertex="1" parent="1">
          <mxGeometry x="790" y="420" width="90" height="26" as="geometry" />
        </mxCell>
        <mxCell id="CHfBnUl9_OPABkR0VaUp-37" value="Duplicate" style="rounded=1;whiteSpace=wrap;html=1;fontSize=14;fontStyle=1" vertex="1" parent="1">
          <mxGeometry x="414" y="420" width="90" height="26" as="geometry" />
        </mxCell>
        <mxCell id="CHfBnUl9_OPABkR0VaUp-38" value="Delete" style="rounded=1;whiteSpace=wrap;html=1;fontSize=14;fontStyle=1" vertex="1" parent="1">
          <mxGeometry x="610" y="420" width="90" height="26" as="geometry" />
        </mxCell>
        <mxCell id="CHfBnUl9_OPABkR0VaUp-40" value="Context Menu" style="swimlane;fontStyle=1;align=center;verticalAlign=top;childLayout=stackLayout;horizontal=1;startSize=26;horizontalStack=0;resizeParent=1;resizeParentMax=0;resizeLast=0;collapsible=1;marginBottom=0;whiteSpace=wrap;html=1;" vertex="1" parent="1">
          <mxGeometry x="930" y="300" width="130" height="172" as="geometry" />
        </mxCell>
        <mxCell id="CHfBnUl9_OPABkR0VaUp-41" value="Complete&amp;nbsp; &amp;nbsp; &amp;nbsp; &amp;nbsp;(Ctrl+C)" style="text;strokeColor=none;fillColor=none;align=left;verticalAlign=top;spacingLeft=4;spacingRight=4;overflow=hidden;rotatable=0;points=[[0,0.5],[1,0.5]];portConstraint=eastwest;whiteSpace=wrap;html=1;" vertex="1" parent="CHfBnUl9_OPABkR0VaUp-40">
          <mxGeometry y="26" width="130" height="26" as="geometry" />
        </mxCell>
        <mxCell id="CHfBnUl9_OPABkR0VaUp-42" value="Duplicate&amp;nbsp; &amp;nbsp; &amp;nbsp; &amp;nbsp; (Ctrl+D)" style="text;strokeColor=none;fillColor=none;align=left;verticalAlign=top;spacingLeft=4;spacingRight=4;overflow=hidden;rotatable=0;points=[[0,0.5],[1,0.5]];portConstraint=eastwest;whiteSpace=wrap;html=1;" vertex="1" parent="CHfBnUl9_OPABkR0VaUp-40">
          <mxGeometry y="52" width="130" height="26" as="geometry" />
        </mxCell>
        <mxCell id="CHfBnUl9_OPABkR0VaUp-43" value="Delete&amp;nbsp; &amp;nbsp; &amp;nbsp; &amp;nbsp; &amp;nbsp; &amp;nbsp; (Delete)" style="text;strokeColor=none;fillColor=none;align=left;verticalAlign=top;spacingLeft=4;spacingRight=4;overflow=hidden;rotatable=0;points=[[0,0.5],[1,0.5]];portConstraint=eastwest;whiteSpace=wrap;html=1;" vertex="1" parent="CHfBnUl9_OPABkR0VaUp-40">
          <mxGeometry y="78" width="130" height="26" as="geometry" />
        </mxCell>
        <mxCell id="CHfBnUl9_OPABkR0VaUp-44" value="" style="line;strokeWidth=1;fillColor=none;align=left;verticalAlign=middle;spacingTop=-1;spacingLeft=3;spacingRight=3;rotatable=0;labelPosition=right;points=[];portConstraint=eastwest;strokeColor=inherit;" vertex="1" parent="CHfBnUl9_OPABkR0VaUp-40">
          <mxGeometry y="104" width="130" height="8" as="geometry" />
        </mxCell>
        <mxCell id="CHfBnUl9_OPABkR0VaUp-45" value="Undo&amp;nbsp; &amp;nbsp; &amp;nbsp; &amp;nbsp; &amp;nbsp; &amp;nbsp; &amp;nbsp; (Ctrl+Z)" style="text;strokeColor=none;fillColor=none;align=left;verticalAlign=top;spacingLeft=4;spacingRight=4;overflow=hidden;rotatable=0;points=[[0,0.5],[1,0.5]];portConstraint=eastwest;whiteSpace=wrap;html=1;" vertex="1" parent="CHfBnUl9_OPABkR0VaUp-40">
          <mxGeometry y="112" width="130" height="26" as="geometry" />
        </mxCell>
        <mxCell id="CHfBnUl9_OPABkR0VaUp-46" value="" style="line;strokeWidth=1;fillColor=none;align=left;verticalAlign=middle;spacingTop=-1;spacingLeft=3;spacingRight=3;rotatable=0;labelPosition=right;points=[];portConstraint=eastwest;strokeColor=inherit;" vertex="1" parent="CHfBnUl9_OPABkR0VaUp-40">
          <mxGeometry y="138" width="130" height="8" as="geometry" />
        </mxCell>
        <mxCell id="CHfBnUl9_OPABkR0VaUp-47" value="Select All&amp;nbsp; &amp;nbsp; &amp;nbsp; &amp;nbsp; (Ctrl+A)" style="text;strokeColor=none;fillColor=none;align=left;verticalAlign=top;spacingLeft=4;spacingRight=4;overflow=hidden;rotatable=0;points=[[0,0.5],[1,0.5]];portConstraint=eastwest;whiteSpace=wrap;html=1;" vertex="1" parent="CHfBnUl9_OPABkR0VaUp-40">
          <mxGeometry y="146" width="130" height="26" as="geometry" />
        </mxCell>
        <mxCell id="CHfBnUl9_OPABkR0VaUp-49" value="Right Click - Context Menu" style="shape=card;whiteSpace=wrap;html=1;fontStyle=1" vertex="1" parent="1">
          <mxGeometry x="710" y="280" width="80" height="100" as="geometry" />
        </mxCell>
        <mxCell id="CHfBnUl9_OPABkR0VaUp-51" value="" style="rounded=0;whiteSpace=wrap;html=1;align=center;" vertex="1" parent="1">
          <mxGeometry x="935" y="80" width="295" height="150" as="geometry" />
        </mxCell>
        <mxCell id="CHfBnUl9_OPABkR0VaUp-50" style="edgeStyle=orthogonalEdgeStyle;rounded=0;orthogonalLoop=1;jettySize=auto;html=1;exitX=1;exitY=0.5;exitDx=0;exitDy=0;exitPerimeter=0;entryX=-0.023;entryY=0.081;entryDx=0;entryDy=0;entryPerimeter=0;" edge="1" parent="1" source="CHfBnUl9_OPABkR0VaUp-49" target="CHfBnUl9_OPABkR0VaUp-40">
          <mxGeometry relative="1" as="geometry" />
        </mxCell>
        <mxCell id="CHfBnUl9_OPABkR0VaUp-52" value="" style="line;strokeWidth=1;fillColor=none;align=left;verticalAlign=middle;spacingTop=-1;spacingLeft=3;spacingRight=3;rotatable=0;labelPosition=right;points=[];portConstraint=eastwest;strokeColor=inherit;" vertex="1" parent="1">
          <mxGeometry x="935" y="106" width="295" height="8" as="geometry" />
        </mxCell>
        <mxCell id="CHfBnUl9_OPABkR0VaUp-53" value="X" style="rounded=1;whiteSpace=wrap;html=1;" vertex="1" parent="1">
          <mxGeometry x="1200" y="85" width="20" height="20" as="geometry" />
        </mxCell>
        <mxCell id="CHfBnUl9_OPABkR0VaUp-55" value="?" style="ellipse;whiteSpace=wrap;html=1;fontSize=36;fontStyle=1" vertex="1" parent="1">
          <mxGeometry x="940" y="130" width="50" height="50" as="geometry" />
        </mxCell>
        <mxCell id="CHfBnUl9_OPABkR0VaUp-60" value="&lt;h1 style=&quot;margin-top: 0px; font-size: 17px;&quot;&gt;&lt;font style=&quot;font-size: 17px;&quot;&gt;You have unsaved changes&lt;/font&gt;&lt;/h1&gt;&lt;p style=&quot;&quot;&gt;&lt;br&gt;&lt;/p&gt;&lt;blockquote style=&quot;margin: 0 0 0 40px; border: none; padding: 0px;&quot;&gt;&lt;p style=&quot;&quot;&gt;&lt;font style=&quot;font-size: 14px;&quot;&gt;&amp;nbsp; &amp;nbsp; &amp;nbsp; Do you want to save changes?&lt;/font&gt;&lt;/p&gt;&lt;/blockquote&gt;" style="text;html=1;whiteSpace=wrap;overflow=hidden;rounded=0;" vertex="1" parent="1">
          <mxGeometry x="940" y="80" width="280" height="120" as="geometry" />
        </mxCell>
        <mxCell id="CHfBnUl9_OPABkR0VaUp-61" value="Yes" style="rounded=1;whiteSpace=wrap;html=1;fontSize=14;fontStyle=1" vertex="1" parent="1">
          <mxGeometry x="942.5" y="200" width="90" height="26" as="geometry" />
        </mxCell>
        <mxCell id="CHfBnUl9_OPABkR0VaUp-62" value="No" style="rounded=1;whiteSpace=wrap;html=1;fontSize=14;fontStyle=1" vertex="1" parent="1">
          <mxGeometry x="1037.5" y="200" width="90" height="26" as="geometry" />
        </mxCell>
        <mxCell id="CHfBnUl9_OPABkR0VaUp-63" value="Cancel" style="rounded=1;whiteSpace=wrap;html=1;fontSize=14;fontStyle=1" vertex="1" parent="1">
          <mxGeometry x="1132.5" y="200" width="90" height="26" as="geometry" />
        </mxCell>
        <mxCell id="CHfBnUl9_OPABkR0VaUp-65" style="edgeStyle=orthogonalEdgeStyle;rounded=0;orthogonalLoop=1;jettySize=auto;html=1;exitX=1;exitY=0.5;exitDx=0;exitDy=0;entryX=0;entryY=0.553;entryDx=0;entryDy=0;entryPerimeter=0;" edge="1" parent="1" source="CHfBnUl9_OPABkR0VaUp-3" target="CHfBnUl9_OPABkR0VaUp-51">
          <mxGeometry relative="1" as="geometry" />
        </mxCell>
      </root>
    </mxGraphModel>
  </diagram>
</mxfile>
